<svg version="1.1" id="Layer_1" xmlns="http://www.w3.org/2000/svg" xmlns:xlink="http://www.w3.org/1999/xlink" x="0px" y="0px"
	 width="100%" viewBox="0 0 512 512" enable-background="new 0 0 512 512" xml:space="preserve">
<path fill="#85BB65" opacity="1.000000" stroke="none"
	d="
M292.000000,0.999999 
	C303.687561,1.000000 315.375122,1.000000 327.316833,1.385689 
	C332.276093,2.842788 336.948700,4.093083 341.691833,4.955585 
	C366.243896,9.420197 388.983124,18.759321 410.049652,31.784136 
	C430.291504,44.299091 448.191895,59.668758 463.175110,78.464241 
	C476.134521,94.720963 486.857208,112.233238 494.611603,131.380890 
	C505.162720,157.434402 510.325562,184.686234 510.015289,212.892609 
	C509.903473,223.058167 504.038818,228.996201 493.833344,228.998154 
	C459.666992,229.004654 425.500671,229.000732 391.334320,229.000824 
	C389.611786,229.000824 387.889221,229.000824 386.260651,229.000824 
	C388.937561,240.618332 391.450409,251.523788 394.094879,263.000458 
	C395.438202,263.000458 397.400635,263.000458 399.363037,263.000458 
	C430.196075,263.000488 461.029114,262.984863 491.862152,263.010925 
	C500.244598,263.018005 508.077484,268.932892 507.895386,275.780426 
	C507.592712,287.160767 507.724670,298.717865 505.732239,309.853119 
	C501.809326,331.777008 494.576324,352.705322 483.031860,371.991669 
	C470.471283,392.975555 454.715179,411.087402 435.387207,426.070953 
	C427.542908,432.152161 418.495911,431.365295 412.269073,423.670837 
	C404.649963,414.255951 397.408691,404.535614 389.988525,394.959412 
	C383.273529,386.293304 376.537659,377.643341 369.814453,368.990692 
	C365.582977,374.504639 361.764893,379.816803 357.587799,384.829895 
	C353.265045,390.017822 348.593933,394.915466 343.830109,400.212585 
	C354.334930,413.753052 364.522400,427.590973 375.481689,440.787903 
	C384.293274,451.398590 381.458710,461.727051 374.584320,466.756958 
	C359.912292,477.492279 344.496521,486.877258 327.742859,494.152313 
	C308.613617,502.458954 288.871796,508.250427 268.226196,511.079742 
	C267.411713,511.191376 266.738861,512.336426 266.000000,513.000000 
	C245.979111,513.000000 225.958206,513.000000 205.681488,512.612915 
	C204.749557,511.827209 204.118896,511.219421 203.390594,511.061218 
	C190.995483,508.368652 178.426865,506.316254 166.221664,502.945343 
	C148.051254,497.926941 131.164337,489.778595 114.981758,480.056549 
	C89.092033,464.502625 67.266472,444.470245 49.249420,420.398010 
	C37.593063,404.824158 28.332418,387.786469 20.875031,369.733429 
	C10.908529,345.606262 5.708760,320.432983 4.143090,294.551514 
	C3.165540,278.391998 4.322897,262.231781 6.900167,246.154007 
	C10.806190,221.787109 18.231550,198.726761 29.553661,176.757446 
	C44.548119,147.662338 64.640884,122.897301 90.093201,102.383018 
	C106.994972,88.760368 125.403030,77.584793 145.431168,69.337204 
	C174.046310,57.553497 203.831833,51.248455 234.945236,51.969875 
	C244.126785,52.182766 249.993500,57.881992 249.997711,67.086418 
	C250.005630,84.414398 250.076462,101.742981 249.937454,119.069847 
	C249.908859,122.632896 250.802643,124.177750 254.677307,124.110405 
	C258.072174,124.051384 261.527557,124.738014 264.878174,125.458160 
	C271.147858,126.805710 277.361053,128.416016 284.000000,130.013824 
	C284.000000,127.674667 284.000000,125.855820 284.000000,124.036972 
	C284.000000,88.547943 284.087738,53.058502 283.920898,17.570255 
	C283.890076,11.016850 285.794769,6.013147 291.612640,2.717383 
	C291.955902,2.522939 291.880554,1.589530 292.000000,0.999999 
M188.308624,162.907425 
	C185.272522,164.063217 182.084091,164.927399 179.224579,166.421234 
	C157.488251,177.776443 139.401260,193.053223 126.221748,214.122208 
	C108.452499,242.528458 102.140717,273.269165 108.301323,305.879669 
	C113.888733,335.456055 128.364731,360.455902 151.625046,380.311371 
	C172.474869,398.109131 196.513748,408.099884 223.403641,410.787842 
	C240.320023,412.478790 257.221252,410.654907 273.583069,405.166656 
	C302.888824,395.336609 326.076599,377.780609 343.098145,351.860596 
	C357.010559,330.675171 363.196350,307.196472 363.744904,282.297028 
	C363.961853,272.448975 361.962128,262.400360 359.861298,252.683121 
	C354.754364,229.060776 342.821136,208.835571 325.982147,191.833969 
	C318.460114,184.239304 309.483551,177.805954 300.368317,172.127853 
	C282.462280,160.973755 262.647247,154.981659 241.517578,154.102112 
	C234.117279,153.794083 226.536133,153.911041 219.272629,155.179733 
	C209.062119,156.963135 199.070801,160.001373 188.308624,162.907425 
M328.063171,431.364899 
	C324.835663,427.139374 321.608154,422.913818 318.429382,418.752075 
	C270.190887,449.103577 203.537460,451.241669 152.186050,419.462952 
	C92.540863,382.551544 63.647514,317.152161 78.568932,250.351425 
	C95.107094,176.312775 144.449783,135.287643 218.806595,122.773735 
	C218.806595,110.020653 218.806595,96.733727 218.806595,83.562157 
	C186.395401,85.955627 156.729614,96.211769 129.357391,113.177849 
	C101.763184,130.281509 79.807838,153.059738 63.098248,180.798920 
	C46.453545,208.430344 36.676342,238.619461 35.408215,270.702057 
	C32.472939,344.962097 61.810390,404.678955 122.318634,447.304321 
	C187.699783,493.362396 275.800720,494.226624 343.035461,450.326660 
	C338.164368,444.184448 333.319031,438.074615 328.063171,431.364899 
M464.507416,141.005173 
	C435.204620,76.800758 384.857697,41.471565 315.575958,31.890543 
	C315.295532,32.654140 315.082642,32.963482 315.082336,33.273052 
	C315.045319,69.243164 314.980988,105.213486 315.141663,141.182800 
	C315.148956,142.817032 316.826935,145.031799 318.347870,145.982300 
	C338.310394,158.457733 354.997681,174.298386 367.906097,193.991440 
	C369.821503,196.913544 371.740356,198.096024 375.267212,198.081146 
	C407.740326,197.944153 440.214233,198.000412 472.687927,198.000412 
	C474.307861,198.000412 475.927765,198.000397 478.195374,198.000397 
	C477.041931,178.049301 472.147400,159.593948 464.507416,141.005173 
M404.893341,362.677582 
	C412.339050,372.416077 419.784790,382.154541 427.238251,391.903168 
	C452.945099,369.699860 478.580841,317.930084 475.542908,294.258606 
	C448.530365,294.258606 421.486115,294.258606 395.401672,294.258606 
	C392.224579,308.967773 389.143524,323.232208 385.868256,338.395935 
	C391.532227,345.596619 398.011902,353.834290 404.893341,362.677582 
z"/><!--
<path fill="#000000" opacity="1.000000" stroke="none" 
	d="
M291.531342,0.999999 
	C291.880554,1.589530 291.955902,2.522939 291.612640,2.717383 
	C285.794769,6.013147 283.890076,11.016850 283.920898,17.570255 
	C284.087738,53.058502 284.000000,88.547943 284.000000,124.036972 
	C284.000000,125.855820 284.000000,127.674667 284.000000,130.013824 
	C277.361053,128.416016 271.147858,126.805710 264.878174,125.458160 
	C261.527557,124.738014 258.072174,124.051384 254.677307,124.110405 
	C250.802643,124.177750 249.908859,122.632896 249.937454,119.069847 
	C250.076462,101.742981 250.005630,84.414398 249.997711,67.086418 
	C249.993500,57.881992 244.126785,52.182766 234.945236,51.969875 
	C203.831833,51.248455 174.046310,57.553497 145.431168,69.337204 
	C125.403030,77.584793 106.994972,88.760368 90.093201,102.383018 
	C64.640884,122.897301 44.548119,147.662338 29.553661,176.757446 
	C18.231550,198.726761 10.806190,221.787109 6.900167,246.154007 
	C4.322897,262.231781 3.165540,278.391998 4.143090,294.551514 
	C5.708760,320.432983 10.908529,345.606262 20.875031,369.733429 
	C28.332418,387.786469 37.593063,404.824158 49.249420,420.398010 
	C67.266472,444.470245 89.092033,464.502625 114.981758,480.056549 
	C131.164337,489.778595 148.051254,497.926941 166.221664,502.945343 
	C178.426865,506.316254 190.995483,508.368652 203.390594,511.061218 
	C204.118896,511.219421 204.749557,511.827209 205.212830,512.612915 
	C137.029541,513.000000 69.059090,513.000000 1.044315,513.000000 
	C1.044315,342.437042 1.044315,171.874054 1.044315,1.000000 
	C97.687340,1.000000 194.375015,1.000000 291.531342,0.999999 
z"/>
<path fill="#000000" opacity="1.000000" stroke="none" 
	d="
M266.468658,513.000000 
	C266.738861,512.336426 267.411713,511.191376 268.226196,511.079742 
	C288.871796,508.250427 308.613617,502.458954 327.742859,494.152313 
	C344.496521,486.877258 359.912292,477.492279 374.584320,466.756958 
	C381.458710,461.727051 384.293274,451.398590 375.481689,440.787903 
	C364.522400,427.590973 354.334930,413.753052 343.830109,400.212585 
	C348.593933,394.915466 353.265045,390.017822 357.587799,384.829895 
	C361.764893,379.816803 365.582977,374.504639 369.814453,368.990692 
	C376.537659,377.643341 383.273529,386.293304 389.988525,394.959412 
	C397.408691,404.535614 404.649963,414.255951 412.269073,423.670837 
	C418.495911,431.365295 427.542908,432.152161 435.387207,426.070953 
	C454.715179,411.087402 470.471283,392.975555 483.031860,371.991669 
	C494.576324,352.705322 501.809326,331.777008 505.732239,309.853119 
	C507.724670,298.717865 507.592712,287.160767 507.895386,275.780426 
	C508.077484,268.932892 500.244598,263.018005 491.862152,263.010925 
	C461.029114,262.984863 430.196075,263.000488 399.363037,263.000458 
	C397.400635,263.000458 395.438202,263.000458 394.094879,263.000458 
	C391.450409,251.523788 388.937561,240.618332 386.260651,229.000824 
	C387.889221,229.000824 389.611786,229.000824 391.334320,229.000824 
	C425.500671,229.000732 459.666992,229.004654 493.833344,228.998154 
	C504.038818,228.996201 509.903473,223.058167 510.015289,212.892609 
	C510.325562,184.686234 505.162720,157.434402 494.611603,131.380890 
	C486.857208,112.233238 476.134521,94.720963 463.175110,78.464241 
	C448.191895,59.668758 430.291504,44.299091 410.049652,31.784136 
	C388.983124,18.759321 366.243896,9.420197 341.691833,4.955585 
	C336.948700,4.093083 332.276093,2.842788 327.785461,1.385689 
	C389.638092,1.000000 451.276154,1.000000 512.957153,1.000000 
	C512.957153,171.558990 512.957153,342.118011 512.957153,513.000000 
	C430.979401,513.000000 348.958344,513.000000 266.468658,513.000000 
z"/>
<path fill="#000000" opacity="1.000000" stroke="none" 
	d="
M188.647186,162.705200 
	C199.070801,160.001373 209.062119,156.963135 219.272629,155.179733 
	C226.536133,153.911041 234.117279,153.794083 241.517578,154.102112 
	C262.647247,154.981659 282.462280,160.973755 300.368317,172.127853 
	C309.483551,177.805954 318.460114,184.239304 325.982147,191.833969 
	C342.821136,208.835571 354.754364,229.060776 359.861298,252.683121 
	C361.962128,262.400360 363.961853,272.448975 363.744904,282.297028 
	C363.196350,307.196472 357.010559,330.675171 343.098145,351.860596 
	C326.076599,377.780609 302.888824,395.336609 273.583069,405.166656 
	C257.221252,410.654907 240.320023,412.478790 223.403641,410.787842 
	C196.513748,408.099884 172.474869,398.109131 151.625046,380.311371 
	C128.364731,360.455902 113.888733,335.456055 108.301323,305.879669 
	C102.140717,273.269165 108.452499,242.528458 126.221748,214.122208 
	C139.401260,193.053223 157.488251,177.776443 179.224579,166.421234 
	C182.084091,164.927399 185.272522,164.063217 188.647186,162.705200 
M204.820557,295.928894 
	C209.999664,296.619293 215.164810,297.738861 220.360886,297.907867 
	C230.181808,298.227295 240.021347,297.921021 249.851593,298.023529 
	C259.149689,298.120453 264.170990,303.833740 264.422089,311.384827 
	C264.686157,319.328522 258.770691,325.014709 249.808228,325.003296 
	C239.477020,324.990112 229.123260,325.398804 218.824966,324.816528 
	C214.304688,324.560913 209.457428,323.060852 205.542770,320.779999 
	C199.768356,317.415558 190.838913,318.341797 186.430923,322.090942 
	C181.645401,326.161194 179.421768,334.286713 182.671844,339.879211 
	C184.835953,343.603027 188.359024,346.931305 192.005814,349.318420 
	C199.975540,354.535248 209.202728,356.075714 218.483032,356.198761 
	C219.013885,362.122955 219.102020,367.744934 220.106384,373.198151 
	C221.516129,380.852264 228.779343,384.989960 237.933899,383.992950 
	C244.255402,383.304474 249.941284,376.713837 249.993164,369.958466 
	C250.028488,365.356689 249.999908,360.754456 249.999908,356.180695 
	C277.260620,356.131348 298.844482,333.656769 295.121765,305.579315 
	C292.272156,284.086609 273.814789,267.435944 252.864624,267.036377 
	C242.037445,266.829865 231.203079,266.996918 220.371964,267.000397 
	C210.074722,267.003693 205.232086,260.140533 205.159973,253.594955 
	C205.085403,246.826508 210.397430,239.950989 220.197601,239.993088 
	C228.529068,240.028885 236.871338,240.260773 245.189407,239.925079 
	C253.052475,239.607758 259.489594,241.660934 265.204315,247.465103 
	C269.858429,252.192078 276.237488,252.704300 282.361145,250.107361 
	C288.313049,247.583252 290.893341,243.005035 291.169861,236.249664 
	C291.567902,226.524307 284.703949,222.487381 278.439819,217.893524 
	C270.179932,211.836075 260.581757,209.424591 249.999969,208.716537 
	C249.999969,204.151184 250.019730,199.692947 249.995377,195.234940 
	C249.958191,188.427063 244.316620,181.743958 238.017487,181.007477 
	C229.342743,179.993240 221.382645,184.658585 220.084915,192.057602 
	C219.127808,197.514709 218.977936,203.113403 218.468857,208.644043 
	C191.981857,210.547653 176.195618,227.590820 174.154221,250.142303 
	C172.356995,269.996552 184.369186,288.656403 204.820557,295.928894 
z"/>
<path fill="#000000" opacity="1.000000" stroke="none" 
	d="
M328.268433,431.664856 
	C333.319031,438.074615 338.164368,444.184448 343.035461,450.326660 
	C275.800720,494.226624 187.699783,493.362396 122.318634,447.304321 
	C61.810390,404.678955 32.472939,344.962097 35.408215,270.702057 
	C36.676342,238.619461 46.453545,208.430344 63.098248,180.798920 
	C79.807838,153.059738 101.763184,130.281509 129.357391,113.177849 
	C156.729614,96.211769 186.395401,85.955627 218.806595,83.562157 
	C218.806595,96.733727 218.806595,110.020653 218.806595,122.773735 
	C144.449783,135.287643 95.107094,176.312775 78.568932,250.351425 
	C63.647514,317.152161 92.540863,382.551544 152.186050,419.462952 
	C203.537460,451.241669 270.190887,449.103577 318.429382,418.752075 
	C321.608154,422.913818 324.835663,427.139374 328.268433,431.664856 
z"/>
<path fill="#000000" opacity="1.000000" stroke="none" 
	d="
M464.717529,141.334518 
	C472.147400,159.593948 477.041931,178.049301 478.195374,198.000397 
	C475.927765,198.000397 474.307861,198.000412 472.687927,198.000412 
	C440.214233,198.000412 407.740326,197.944153 375.267212,198.081146 
	C371.740356,198.096024 369.821503,196.913544 367.906097,193.991440 
	C354.997681,174.298386 338.310394,158.457733 318.347870,145.982300 
	C316.826935,145.031799 315.148956,142.817032 315.141663,141.182800 
	C314.980988,105.213486 315.045319,69.243164 315.082336,33.273052 
	C315.082642,32.963482 315.295532,32.654140 315.575958,31.890543 
	C384.857697,41.471565 435.204620,76.800758 464.717529,141.334518 
z"/>
	<path fill="#000000" opacity="1.000000" stroke="none"
		d="
M404.692444,362.374786
	C398.011902,353.834290 391.532227,345.596619 385.868256,338.395935
	C389.143524,323.232208 392.224579,308.967773 395.401672,294.258606
	C421.486115,294.258606 448.530365,294.258606 475.542908,294.258606
	C478.580841,317.930084 452.945099,369.699860 427.238251,391.903168
	C419.784790,382.154541 412.339050,372.416077 404.692444,362.374786
z"/>-->
	<path fill="#85BB65" opacity="1.000000" stroke="none"
		d="
M204.452362,295.753021
	C184.369186,288.656403 172.356995,269.996552 174.154221,250.142303
	C176.195618,227.590820 191.981857,210.547653 218.468857,208.644043
	C218.977936,203.113403 219.127808,197.514709 220.084915,192.057602
	C221.382645,184.658585 229.342743,179.993240 238.017487,181.007477
	C244.316620,181.743958 249.958191,188.427063 249.995377,195.234940
	C250.019730,199.692947 249.999969,204.151184 249.999969,208.716537
	C260.581757,209.424591 270.179932,211.836075 278.439819,217.893524
	C284.703949,222.487381 291.567902,226.524307 291.169861,236.249664
	C290.893341,243.005035 288.313049,247.583252 282.361145,250.107361
	C276.237488,252.704300 269.858429,252.192078 265.204315,247.465103
	C259.489594,241.660934 253.052475,239.607758 245.189407,239.925079
	C236.871338,240.260773 228.529068,240.028885 220.197601,239.993088
	C210.397430,239.950989 205.085403,246.826508 205.159973,253.594955
	C205.232086,260.140533 210.074722,267.003693 220.371964,267.000397
	C231.203079,266.996918 242.037445,266.829865 252.864624,267.036377
	C273.814789,267.435944 292.272156,284.086609 295.121765,305.579315
	C298.844482,333.656769 277.260620,356.131348 249.999908,356.180695
	C249.999908,360.754456 250.028488,365.356689 249.993164,369.958466
	C249.941284,376.713837 244.255402,383.304474 237.933899,383.992950
	C228.779343,384.989960 221.516129,380.852264 220.106384,373.198151
	C219.102020,367.744934 219.013885,362.122955 218.483032,356.198761
	C209.202728,356.075714 199.975540,354.535248 192.005814,349.318420
	C188.359024,346.931305 184.835953,343.603027 182.671844,339.879211
	C179.421768,334.286713 181.645401,326.161194 186.430923,322.090942
	C190.838913,318.341797 199.768356,317.415558 205.542770,320.779999
	C209.457428,323.060852 214.304688,324.560913 218.824966,324.816528
	C229.123260,325.398804 239.477020,324.990112 249.808228,325.003296
	C258.770691,325.014709 264.686157,319.328522 264.422089,311.384827
	C264.170990,303.833740 259.149689,298.120453 249.851593,298.023529
	C240.021347,297.921021 230.181808,298.227295 220.360886,297.907867
	C215.164810,297.738861 209.999664,296.619293 204.452362,295.753021
z"/>
</svg>